# File created by Blade
# Date/Time:  Tue Jan 27 20:02:46 2015
#---------------------------------------------------------
:version 1.10
:name HOM
:units
  mass 1.0
  length 1.000000
  angle deg
:documentation
     Acclaim Skeleton File
:root
   axis xyz
   order TX TY TZ RX RY RZ
   position 0.000000 0.000000 0.000000
   orientation 0 0 0
:bonedata
   begin
      id 1
      name Spine_dum
      direction 0.000000 1.000000 0.000000
      length 6.116652
      axis 0.0 0.0 0.0 xyz
   end
   begin
      id 2
      name LeftUpLeg_dum
      direction 1.000000 0.000000 0.000000
      length 4.711765
      axis 0.0 0.0 0.0 xyz
   end
   begin
      id 3
      name RightUpLeg_dum
      direction -1.000000 0.000000 0.000000
      length 4.711765
      axis 0.0 0.0 0.0 xyz
   end
   begin
      id 4
      name Spine
      direction 0.000000 1.000000 0.000000
      length 0.000000
      axis 0.0 0.0 0.0 xyz
      dof rx ry rz
   end
   begin
      id 5
      name Spine_dum1
      direction 0.000000 1.000000 0.000000
      length 15.225563
      axis 0.0 0.0 0.0 xyz
   end
   begin
      id 6
      name Spine_dum2
      direction 0.000000 1.000000 0.000000
      length 8.977654
      axis 0.0 0.0 0.0 xyz
   end
   begin
      id 7
      name Spine_dum3
      direction 0.000000 1.000000 0.000000
      length 8.977654
      axis 0.0 0.0 0.0 xyz
   end
   begin
      id 8
      name Head
      direction 0.000000 1.000000 0.000000
      length 4.527550
      axis 0.0 0.0 0.0 xyz
      dof rx ry rz
   end
   begin
      id 9
      name LeftShoulder
      direction 1.000000 0.000000 0.000000
      length 7.110130
      axis 0.0 0.0 -90.0 xyz
      dof rx ry rz
   end
   begin
      id 10
      name LeftArm
      direction 1.000000 0.000000 0.000000
      length 10.398341
      axis 0.0 0.0 -90.0 xyz
      dof rx ry rz
   end
   begin
      id 11
      name LeftForeArm
      direction 1.000000 0.000000 0.000000
      length 8.888997
      axis 0.0 0.0 -90.0 xyz
      dof ry rz rx
   end
   begin
      id 12
      name LeftHand
      direction 0.000000 0.000000 0.000000
      length 0.000000
      axis 0.0 0.0 -90.0 xyz
      dof rx ry rz
   end
   begin
      id 13
      name LeftHand_dum1
      direction 0.000000 0.000000 0.000000
      length 0.000000
      axis 0.0 0.0 -90.0 xyz
   end
   begin
      id 14
      name LeftHand_dum2
      direction 1.000000 0.000000 0.000000
      length 3.937000
      axis 0.0 0.0 -90.0 xyz
   end
   begin
      id 15
      name LeftHandThumb1
      direction 0.000000 0.000000 1.000000
      length 3.937000
      axis 0.0 0.0 -90.0 xyz
      dof rx rz ry
   end
   begin
      id 16
      name RightShoulder
      direction -1.000000 0.000000 0.000000
      length 7.110130
      axis 0.0 0.0 90.0 xyz
      dof rx ry rz
   end
   begin
      id 17
      name RightArm
      direction -1.000000 0.000000 0.000000
      length 10.398341
      axis 0.0 0.0 90.0 xyz
      dof rx ry rz
   end
   begin
      id 18
      name RightForeArm
      direction -1.000000 0.000000 0.000000
      length 8.888997
      axis 0.0 0.0 90.0 xyz
      dof ry rz rx
   end
   begin
      id 19
      name RightHand
      direction 0.000000 0.000000 0.000000
      length 0.000000
      axis 0.0 0.0 90.0 xyz
      dof rx ry rz
   end
   begin
      id 20
      name RightHand_dum1
      direction 0.000000 0.000000 0.000000
      length 0.000000
      axis 0.0 0.0 90.0 xyz
   end
   begin
      id 21
      name RightHand_dum2
      direction -1.000000 0.000000 0.000000
      length 3.937000
      axis 0.0 0.0 90.0 xyz
   end
   begin
      id 22
      name RightHandThumb1
      direction 0.000000 0.000000 1.000000
      length 3.937000
      axis 0.0 0.0 90.0 xyz
      dof rx rz ry
   end
   begin
      id 23
      name LeftUpLeg
      direction 0.000000 -1.000000 0.000000
      length 15.510451
      axis 0.0 0.0 0.0 xyz
      dof rx ry rz
   end
   begin
      id 24
      name LeftLeg
      direction 0.000000 -1.000000 0.000000
      length 14.858061
      axis 0.0 0.0 0.0 xyz
      dof rx ry rz
   end
   begin
      id 25
      name LeftFoot
      direction 0.000000 -0.258819 0.965926
      length 5.128852
      axis 15.0 0.0 0.0 xyz
      dof rx ry rz
   end
   begin
      id 26
      name LeftToeBase
      direction 0.000000 0.000000 1.000000
      length 2.952750
      axis 0.0 0.0 0.0 xyz
      dof rx ry rz
   end
   begin
      id 27
      name RightUpLeg
      direction 0.000000 -1.000000 0.000000
      length 15.510451
      axis 0.0 0.0 0.0 xyz
      dof rx ry rz
   end
   begin
      id 28
      name RightLeg
      direction 0.000000 -1.000000 0.000000
      length 14.858061
      axis 0.0 0.0 0.0 xyz
      dof rx ry rz
   end
   begin
      id 29
      name RightFoot
      direction 0.000000 -0.258819 0.965926
      length 5.128852
      axis 15.0 0.0 0.0 xyz
      dof rx ry rz
   end
   begin
      id 30
      name RightToeBase
      direction 0.000000 0.000000 1.000000
      length 2.952750
      axis 0.0 0.0 0.0 xyz
      dof rx ry rz
   end
:hierarchy
   begin
      root Spine_dum LeftUpLeg_dum RightUpLeg_dum
      Spine_dum Spine
      LeftUpLeg_dum LeftUpLeg
      RightUpLeg_dum RightUpLeg
      Spine Spine_dum1 Spine_dum2 Spine_dum3
      Spine_dum1 Head
      Spine_dum2 LeftShoulder
      Spine_dum3 RightShoulder
      LeftShoulder LeftArm
      LeftArm LeftForeArm
      LeftForeArm LeftHand
      LeftHand LeftHand_dum1 LeftHand_dum2
      LeftHand_dum1 LeftHandThumb1
      RightShoulder RightArm
      RightArm RightForeArm
      RightForeArm RightHand
      RightHand RightHand_dum1 RightHand_dum2
      RightHand_dum1 RightHandThumb1
      LeftUpLeg LeftLeg
      LeftLeg LeftFoot
      LeftFoot LeftToeBase
      RightUpLeg RightLeg
      RightLeg RightFoot
      RightFoot RightToeBase
   end

# File created by Blade
# Date/Time:  Tue Jan 27 20:02:37 2015
# Frame Rate: 120.000 fps
#------------------------------------------------------
:FULLY-SPECIFIED
:DEGREES
264
root 7.632249 32.366315 2.971237 -6.628900 -5.679116 -3.078640
Spine 7.542838 7.658939 2.413183
Head 9.805755 -6.371063 1.671365
LeftShoulder -15.903502 1.909684 28.267593
LeftArm -3.740956 -7.028724 -87.876117
LeftForeArm -1.451689 -0.000000 126.544541
LeftHand 5.612224 -0.000000 11.989165
LeftHandThumb1 -26.253704 0.000000 33.147579
RightShoulder -18.449592 -16.885322 -22.829358
RightArm 13.720513 -31.050923 93.581624
RightForeArm -14.299216 -0.000000 20.007859
RightHand 15.969350 0.000000 9.146658
RightHandThumb1 -24.326973 -0.000000 -32.862282
LeftUpLeg 10.850845 2.823598 -4.477515
LeftLeg 0.998383 -0.000000 -0.000000
LeftFoot -18.689156 16.773741 -20.542037
LeftToeBase 19.310242 -0.000000 -0.000000
RightUpLeg -46.415823 3.027176 6.726983
RightLeg 82.021445 -0.000000 -0.000000
RightFoot -4.036006 -20.934538 27.679047
RightToeBase 12.730241 -0.000000 -0.000000
265
root 7.652368 32.363547 2.988452 -6.604968 -5.631087 -3.035260
Spine 7.438100 7.733943 2.348857
Head 9.945803 -6.531083 1.675261
LeftShoulder -15.932745 2.014932 28.263310
LeftArm -3.883707 -7.068902 -87.840875
LeftForeArm -1.261103 -0.000000 126.458755
LeftHand 5.595574 -0.000000 11.781323
LeftHandThumb1 -26.253704 0.000000 33.147579
RightShoulder -18.463130 -16.919995 -22.812394
RightArm 13.690545 -30.971306 93.581153
RightForeArm -14.316644 -0.000000 20.130561
RightHand 15.987286 -0.000000 8.645657
RightHandThumb1 -24.326973 -0.000000 -32.862282
LeftUpLeg 10.915258 2.937357 -4.535975
LeftLeg 0.879441 -0.000000 -0.000000
LeftFoot -18.518938 16.652554 -20.360623
LeftToeBase 19.003147 -0.000000 -0.000000
RightUpLeg -46.260358 2.992865 6.636611
RightLeg 81.769462 -0.000000 -0.000000
RightFoot -4.012153 -21.072504 27.589041
RightToeBase 12.656688 -0.000000 -0.000000
266
root 7.668539 32.360872 3.003452 -6.592344 -5.584291 -3.030377
Spine 7.362177 7.808417 2.326794
Head 10.068913 -6.711351 1.668722
LeftShoulder -15.938459 2.092807 28.259949
LeftArm -4.028800 -7.088136 -87.798451
LeftForeArm -1.047079 -0.000000 126.336517
LeftHand 5.650882 -0.000000 11.665023
LeftHandThumb1 -26.253704 0.000000 33.147579
RightShoulder -18.484236 -16.962658 -22.786181
RightArm 13.691967 -30.907074 93.557967
RightForeArm -14.546978 -0.000000 20.264293
RightHand 15.931099 -0.000000 8.107319
RightHandThumb1 -24.326973 -0.000000 -32.862282
LeftUpLeg 10.984963 2.981699 -4.558244
LeftLeg 0.758284 -0.000000 -0.000000
LeftFoot -18.462059 16.573898 -20.329279
LeftToeBase 19.004065 -0.000000 -0.000000
RightUpLeg -46.102459 3.006355 6.571905
RightLeg 81.540738 -0.000000 -0.000000
RightFoot -4.278008 -21.166723 28.009653
RightToeBase 12.862107 -0.000000 -0.000000
267
root 7.678356 32.358401 3.020132 -6.579729 -5.543085 -3.031336
Spine 7.285986 7.899027 2.282913
Head 10.163507 -6.897031 1.744477
LeftShoulder -15.939102 2.214399 28.287723
LeftArm -4.118358 -7.084452 -87.755324
LeftForeArm -0.886677 0.000000 126.180854
LeftHand 5.766256 -0.000000 11.653001
LeftHandThumb1 -26.253704 0.000000 33.147579
RightShoulder -18.516781 -16.995852 -22.731052
RightArm 13.708186 -30.832391 93.530240
RightForeArm -14.475072 -0.000000 20.362786
RightHand 15.900721 -0.000000 7.880466
RightHandThumb1 -24.326973 -0.000000 -32.862282
LeftUpLeg 11.057640 2.997980 -4.568391
LeftLeg 0.644945 -0.000000 -0.000000
LeftFoot -18.419050 16.518311 -20.308687
LeftToeBase 19.004620 -0.000000 -0.000000
RightUpLeg -45.934847 3.032024 6.528583
RightLeg 81.277219 -0.000000 -0.000000
RightFoot -4.419925 -21.251339 28.111478
RightToeBase 13.038164 -0.000000 -0.000000
268
root 7.686619 32.354344 3.033192 -6.551422 -5.496233 -3.078189
Spine 7.215057 7.979980 2.303679
Head 10.234520 -7.071325 1.781002
LeftShoulder -15.924416 2.270824 28.307727
LeftArm -4.258555 -7.054212 -87.713151
LeftForeArm -0.677406 -0.000000 126.041299
LeftHand 5.793420 -0.000000 11.665216
LeftHandThumb1 -26.253704 0.000000 33.147579
RightShoulder -18.539594 -17.009148 -22.716783
RightArm 13.693300 -30.793067 93.531588
RightForeArm -14.532861 0.000000 20.487494
RightHand 15.796128 -0.000000 7.772810
RightHandThumb1 -24.326973 -0.000000 -32.862282
LeftUpLeg 11.054947 2.777021 -4.605804
LeftLeg 0.619093 -0.000000 -0.000000
LeftFoot -18.499943 16.836934 -20.169700
LeftToeBase 18.918262 -0.000000 -0.000000
RightUpLeg -45.799702 3.035144 6.542388
RightLeg 81.029581 -0.000000 -0.000000
RightFoot -4.601771 -21.431044 28.241529
RightToeBase 13.278001 -0.000000 -0.000000
269
root 7.701612 32.350666 3.044206 -6.503538 -5.486387 -3.109251
Spine 7.133110 8.075172 2.334793
Head 10.287216 -7.201165 1.794123
LeftShoulder -15.915690 2.348612 28.303326
LeftArm -4.390736 -7.033605 -87.665974
LeftForeArm -0.452090 -0.000000 125.885855
LeftHand 5.859367 0.000000 11.609978
LeftHandThumb1 -26.253704 0.000000 33.147579
RightShoulder -18.556976 -16.966540 -22.729088
RightArm 13.642576 -30.790705 93.508870
RightForeArm -14.253163 -0.000000 20.636737
RightHand 15.876811 -0.000000 8.551703
RightHandThumb1 -24.326973 -0.000000 -32.862282
LeftUpLeg 11.046633 2.622059 -4.630895
LeftLeg 0.600099 -0.000000 -0.000000
LeftFoot -18.572335 16.922109 -20.185028
LeftToeBase 18.699583 -0.000000 -0.000000
RightUpLeg -45.717574 3.048260 6.544890
RightLeg 80.800287 -0.000000 -0.000000
RightFoot -4.617251 -21.613047 27.930956
RightToeBase 13.184967 -0.000000 -0.000000
270
root 7.730266 32.346749 3.046641 -6.477769 -5.469991 -3.123030
Spine 7.131473 8.091101 2.416194
Head 10.271586 -7.238560 1.703031
LeftShoulder -15.941393 2.381805 28.242633
LeftArm -4.559051 -7.026719 -87.625691
LeftForeArm -0.126922 0.000000 125.728488
LeftHand 5.953109 -0.000000 11.550443
LeftHandThumb1 -26.253704 0.000000 33.147579
RightShoulder -18.540414 -16.916600 -22.802759
RightArm 13.678557 -30.734144 93.449631
RightForeArm -14.394407 -0.000000 20.796443
RightHand 15.906422 -0.000000 7.951685
RightHandThumb1 -24.326973 -0.000000 -32.862282
LeftUpLeg 11.032853 2.454458 -4.715150
LeftLeg 0.564932 -0.000000 -0.000000
LeftFoot -18.671312 17.134519 -20.211504
LeftToeBase 18.959607 -0.000000 -0.000000
RightUpLeg -45.664704 2.999138 6.498455
RightLeg 80.618203 -0.000000 -0.000000
RightFoot -4.786112 -21.734683 28.041781
RightToeBase 13.471036 -0.000000 -0.000000
271
root 7.751920 32.344600 3.054915 -6.447789 -5.476841 -3.127495
Spine 7.083494 8.109406 2.442525
Head 10.320714 -7.272865 1.690838
LeftShoulder -15.971005 2.435703 28.219472
LeftArm -4.738513 -6.971402 -87.565491
LeftForeArm 0.079264 -0.000000 125.552515
LeftHand 6.030857 -0.000000 11.618513
LeftHandThumb1 -26.253704 0.000000 33.147579
RightShoulder -18.502033 -16.905849 -22.818572
RightArm 13.779010 -30.723509 93.348242
RightForeArm -14.428442 -0.000000 20.912110
RightHand 15.764463 -0.000000 7.453355
RightHandThumb1 -24.326973 -0.000000 -32.862282
LeftUpLeg 11.018393 2.314100 -4.784899
LeftLeg 0.555570 -0.000000 -0.000000
LeftFoot -18.666678 17.322138 -20.118580
LeftToeBase 18.959323 -0.000000 -0.000000
RightUpLeg -45.610073 2.998615 6.458379
RightLeg 80.437249 -0.000000 -0.000000
RightFoot -4.919034 -21.820335 28.098134
RightToeBase 13.341500 -0.000000 -0.000000
272
root 7.766403 32.341782 3.067057 -6.438600 -5.502869 -3.113738
Spine 7.066450 8.173299 2.430059
Head 10.324208 -7.327989 1.699305
LeftShoulder -16.024439 2.619783 28.209942
LeftArm -4.739032 -6.924121 -87.526120
LeftForeArm 0.236720 -0.000000 125.329162
LeftHand 6.187359 -0.000000 11.573636
LeftHandThumb1 -26.253704 0.000000 33.147579
RightShoulder -18.505220 -16.861975 -22.836941
RightArm 13.817952 -30.738621 93.308687
RightForeArm -14.376083 -0.000000 21.029198
RightHand 15.782772 -0.000000 7.316382
RightHandThumb1 -24.326973 -0.000000 -32.862282
LeftUpLeg 11.043376 2.257637 -4.834852
LeftLeg 0.526227 -0.000000 -0.000000
LeftFoot -18.647652 17.370335 -20.106914
LeftToeBase 19.025325 -0.000000 -0.000000
RightUpLeg -45.545626 3.048368 6.425501
RightLeg 80.289610 -0.000000 -0.000000
RightFoot -5.107725 -21.953468 28.148526
RightToeBase 13.206953 -0.000000 -0.000000
